<?xml version="1.0"?>
<svg xmlns="http://www.w3.org/2000/svg" xmlns:xlink="http://www.w3.org/1999/xlink" xmlns:svgjs="http://svgjs.com/svgjs" version="1.1" width="512" height="512" x="0" y="0" viewBox="0 0 512 512" style="enable-background:new 0 0 512 512" xml:space="preserve" class=""><g><path xmlns="http://www.w3.org/2000/svg" d="m442 180c-5.519531 0-10 4.480469-10 10s4.480469 10 10 10 10-4.480469 10-10-4.480469-10-10-10zm0 0" fill="#ffffff" data-original="#000000" style="" class=""/><path xmlns="http://www.w3.org/2000/svg" d="m276 80c5.519531 0 10-4.480469 10-10s-4.480469-10-10-10-10 4.480469-10 10 4.480469 10 10 10zm0 0" fill="#ffffff" data-original="#000000" style="" class=""/><path xmlns="http://www.w3.org/2000/svg" d="m482 120h-136v-90c0-16.542969-13.457031-30-30-30h-286c-16.542969 0-30 13.457031-30 30v200c0 16.542969 13.457031 30 30 30h30v50c0 8.957031 10.824219 13.316406 17.070312 7.070312l57.070313-57.070312h31.859375v90c0 16.542969 13.457031 30 30 30h181.859375l57.070313 57.070312c6.253906 6.253907 17.070312 1.867188 17.070312-7.070312v-50h30c16.542969 0 30-13.457031 30-30v-200c0-16.542969-13.457031-30-30-30zm-412 19.988281h97.71875c-1.109375 3.132813-1.71875 6.496094-1.71875 10v30.011719h-96c-5.523438 0-10 4.476562-10 10s4.476562 10 10 10h96v40h-36c-2.652344 0-5.195312 1.054688-7.070312 2.929688l-42.929688 42.925781v-35.855469c0-5.523438-4.476562-10-10-10h-40c-5.515625 0-10-4.484375-10-10v-200c0-5.515625 4.484375-10 10-10h286c5.515625 0 10 4.484375 10 10v90c-14.070312 0-241.910156 0-256 0-5.523438 0-10 4.476562-10 10s4.476562 9.988281 10 9.988281zm422 210.011719c0 5.515625-4.484375 10-10 10h-40c-5.523438 0-10 4.476562-10 10v35.855469l-42.929688-42.925781c-1.875-1.875-4.417968-2.929688-7.070312-2.929688h-186c-5.515625 0-10-4.488281-10-10v-200c0-5.515625 4.484375-10 10-10h286c5.515625 0 10 4.484375 10 10zm0 0" fill="#ffffff" data-original="#000000" style="" class=""/><path xmlns="http://www.w3.org/2000/svg" d="m70 80h166c5.523438 0 10-4.476562 10-10s-4.476562-10-10-10h-166c-5.523438 0-10 4.476562-10 10s4.476562 10 10 10zm0 0" fill="#ffffff" data-original="#000000" style="" class=""/><path xmlns="http://www.w3.org/2000/svg" d="m236 200h166c5.523438 0 10-4.476562 10-10s-4.476562-10-10-10h-166c-5.523438 0-10 4.476562-10 10s4.476562 10 10 10zm0 0" fill="#ffffff" data-original="#000000" style="" class=""/><path xmlns="http://www.w3.org/2000/svg" d="m442 240h-206c-5.523438 0-10 4.476562-10 10s4.476562 10 10 10h206c5.523438 0 10-4.476562 10-10s-4.476562-10-10-10zm0 0" fill="#ffffff" data-original="#000000" style="" class=""/><path xmlns="http://www.w3.org/2000/svg" d="m442 300h-206c-5.523438 0-10 4.476562-10 10s4.476562 10 10 10h206c5.523438 0 10-4.476562 10-10s-4.476562-10-10-10zm0 0" fill="#ffffff" data-original="#000000" style="" class=""/></g></svg>
