<?xml version="1.0" encoding="UTF-8"?>
<svg xmlns="http://www.w3.org/2000/svg" xmlns:xlink="http://www.w3.org/1999/xlink" width="15pt" height="15pt" viewBox="0 0 15 15" version="1.1">
<g id="surface1">
<path style=" stroke:none;fill-rule:nonzero;fill:rgb(100%,100%,100%);fill-opacity:1;" d="M 11.667969 6.914062 L 4.992188 0.238281 C 4.835938 0.0859375 4.632812 0 4.410156 0 C 4.191406 0 3.984375 0.0859375 3.832031 0.238281 L 3.339844 0.730469 C 3.019531 1.050781 3.019531 1.570312 3.339844 1.890625 L 8.945312 7.496094 L 3.332031 13.109375 C 3.179688 13.261719 3.09375 13.46875 3.09375 13.6875 C 3.09375 13.910156 3.179688 14.113281 3.332031 14.269531 L 3.824219 14.761719 C 3.980469 14.914062 4.183594 15 4.40625 15 C 4.625 15 4.832031 14.914062 4.984375 14.761719 L 11.667969 8.078125 C 11.820312 7.925781 11.90625 7.71875 11.90625 7.496094 C 11.90625 7.277344 11.820312 7.070312 11.667969 6.914062 Z M 11.667969 6.914062 "/>
</g>
</svg>
