<?xml version="1.0" encoding="UTF-8"?>
<svg xmlns="http://www.w3.org/2000/svg" xmlns:xlink="http://www.w3.org/1999/xlink" width="15pt" height="15pt" viewBox="0 0 15 15" version="1.1">
<g id="surface1">
<path style=" stroke:none;fill-rule:nonzero;fill:rgb(100%,100%,100%);fill-opacity:1;" d="M 6.054688 7.503906 L 11.667969 1.890625 C 11.820312 1.738281 11.90625 1.53125 11.90625 1.3125 C 11.90625 1.089844 11.820312 0.886719 11.667969 0.730469 L 11.175781 0.238281 C 11.019531 0.0859375 10.8125 0 10.59375 0 C 10.375 0 10.167969 0.0859375 10.015625 0.238281 L 3.332031 6.921875 C 3.179688 7.074219 3.09375 7.28125 3.09375 7.503906 C 3.09375 7.722656 3.179688 7.929688 3.332031 8.085938 L 10.007812 14.761719 C 10.164062 14.914062 10.367188 15 10.589844 15 C 10.808594 15 11.015625 14.914062 11.167969 14.761719 L 11.660156 14.269531 C 11.980469 13.949219 11.980469 13.429688 11.660156 13.109375 Z M 6.054688 7.503906 "/>
</g>
</svg>
